<?xml version="1.0" encoding="utf-8"?>
<!-- Generator: Adobe Illustrator 16.0.0, SVG Export Plug-In . SVG Version: 6.00 Build 0)  -->
<!DOCTYPE svg PUBLIC "-//W3C//DTD SVG 1.1//EN" "http://www.w3.org/Graphics/SVG/1.1/DTD/svg11.dtd">
<svg version="1.1" id="Layer_1" xmlns="http://www.w3.org/2000/svg" xmlns:xlink="http://www.w3.org/1999/xlink" x="0px" y="0px"
	 width="595.281px" height="124.716px" viewBox="0 358.583 595.281 124.716" enable-background="new 0 358.583 595.281 124.716"
	 xml:space="preserve">
<g>
	<g>
		<path fill="#29235C" d="M219.12,358.583c7.37,0,12.813,0.681,16.356,2.069c3.515,1.389,6.009,2.466,7.483,3.23
			c1.446,0.766,2.58,1.305,3.345,1.615l-7.597,15.874l-2.977-1.615c-6.293-3.062-11.82-4.593-16.583-4.593
			c-3.997,0-7.512,1.391-10.602,4.139c-2.75,2.608-4.139,5.074-4.139,7.37c-0.454,3.231,0.114,5.981,1.729,8.277
			c1.615,2.296,3.713,4.45,6.321,6.463c2.608,1.983,5.499,3.997,8.646,5.981c3.147,1.983,5.953,4.279,8.391,6.889
			c6.151,5.98,8.561,13.521,7.257,22.563c-1.304,9.072-5.272,16.355-11.849,21.885c-6.604,5.527-15.647,8.277-27.156,8.277
			c-9.354,0-17.49-1.93-24.407-5.754c-1.389-0.908-2.523-1.617-3.458-2.07l7.37-15.873c0.765,0.311,1.814,0.85,3.118,1.615
			c1.304,0.766,2.806,1.473,4.507,2.068c4.28,1.844,8.277,2.75,11.962,2.75c6.747,0,11.82-2.297,15.194-6.918
			c1.077-1.389,1.786-3.344,2.183-5.867c0.369-2.521-0.283-4.848-1.956-6.916c-1.701-2.068-3.827-4.055-6.435-5.98
			c-2.608-1.928-5.442-3.912-8.504-5.981s-5.896-4.394-8.532-7.001c-5.981-5.98-8.362-13.55-7.144-22.678
			c1.218-9.129,5.131-16.385,11.735-21.742C199.929,361.275,208.546,358.583,219.12,358.583z"/>
		<path fill="#29235C" d="M267.706,464.939l-14.514-104.516h22.791l5.301,87.705l29.934-87.705h22.791L290.27,464.939H267.706z"/>
	</g>
	<g>
		<path fill="#29235C" d="M397.931,358.583c7.144,0,12.443,0.681,15.873,2.013c3.431,1.332,5.84,2.381,7.258,3.117
			c1.416,0.737,2.494,1.275,3.23,1.561l-7.369,15.42l-2.893-1.588c-6.121-2.977-11.48-4.449-16.101-4.449
			c-3.854,0-7.285,1.332-10.262,4.025c-2.693,2.521-4.025,4.902-4.025,7.144c-0.452,3.118,0.113,5.812,1.673,8.05
			c1.561,2.238,3.6,4.309,6.123,6.266c2.522,1.928,5.329,3.883,8.391,5.812c3.033,1.928,5.783,4.167,8.164,6.688
			c5.953,5.813,8.307,13.098,7.029,21.885c-1.275,8.787-5.103,15.873-11.509,21.203c-6.405,5.357-15.192,8.051-26.362,8.051
			c-9.07,0-16.979-1.871-23.668-5.584c-1.334-0.908-2.468-1.561-3.347-2.014l7.144-15.42c0.737,0.311,1.758,0.82,3.006,1.559
			c1.274,0.736,2.721,1.418,4.365,2.014c4.166,1.785,8.051,2.691,11.621,2.691c6.549,0,11.479-2.238,14.77-6.717
			c1.021-1.334,1.729-3.232,2.127-5.699c0.367-2.465-0.256-4.705-1.9-6.717c-1.644-2.014-3.713-3.941-6.264-5.813
			c-2.522-1.871-5.272-3.799-8.25-5.811c-2.977-2.014-5.727-4.281-8.277-6.805c-5.811-5.811-8.106-13.152-6.916-21.997
			c1.191-8.872,4.988-15.901,11.396-21.118C379.306,361.189,387.64,358.583,397.931,358.583z"/>
		<path fill="#29235C" d="M445.298,360.368h21.43l-6.264,44.448l30.813-44.448h23.896l-35.065,46.007
			c3.885,9.383,7.854,18.623,11.963,27.695c4.082,9.1,8.164,18.313,12.159,27.693h-25.682l-19.219-49.352l-6.916,49.352h-21.459
			L445.298,360.368z"/>
		<path fill="#29235C" d="M556.191,360.368h25.682l13.408,101.425h-22.564l-2.012-17.66H542.33l-7.146,17.66h-21.459
			L556.191,360.368z M565.8,380.238c-1.049,2.523-2.24,5.728-3.572,9.609c-1.332,3.885-2.834,7.994-4.479,12.389
			c-1.646,4.394-3.316,8.93-5.018,13.635c-1.701,4.706-3.459,9.27-5.244,13.748h21.883c-0.283-4.479-0.68-9.042-1.105-13.748
			c-0.453-4.678-0.819-9.241-1.104-13.635c-0.312-4.395-0.594-8.532-0.906-12.389C565.941,385.994,565.8,382.791,565.8,380.238z"/>
	</g>
	<g>
		<path fill="#29235C" d="M0.085,359.404c1.446,0.906,2.807,1.729,4.11,2.607c3.969,2.607,7.88,5.244,11.877,7.795
			c0.992,0.625,1.445,1.305,1.445,2.553c-0.057,19.104-0.028,38.183-0.085,57.289c0,0.906,0.312,1.416,0.964,1.842
			c4.592,2.977,25.2,16.412,30.898,20.154c5.272,3.459,10.545,6.945,15.789,10.459c0.794,0.539,1.389,0.455,2.126-0.027
			c7.455-4.902,35.858-23.557,44.703-29.396c0.369-0.227,0.68-0.453,0.992-0.65c1.417-1.105,1.956-1.504,1.928-2.607
			c-0.028-18.738,0.028-37.477-0.085-56.212c0-1.956,0.624-3.005,2.183-3.969c3.968-2.495,7.88-5.132,11.792-7.683
			c1.105-0.709,2.211-1.39,3.543-2.211c0,3.315,0,6.377,0,9.467c0,1.361-0.028,2.75-0.028,4.11c0,22.024,0,44.079,0.028,66.134
			c0,0.879-0.312,1.389-0.964,1.842c-6.775,4.422-62.816,41.074-63.979,41.953c-0.878,0.652-1.587,0.539-2.438-0.027
			c-2.835-1.898-5.698-3.77-8.561-5.641c-3.401-2.24-51.563-33.932-55.049-36.086C0.369,440.533,0,439.938,0,438.803
			C0.057,432.313,0.085,378.85,0.085,359.404z"/>
		<g>
			<path fill="#F29100" d="M34.668,400.791c1.502,0.936,2.92,1.843,4.309,2.749c3.572,2.354,7.172,4.678,10.715,7.06
				c3.571,2.353,7.115,4.733,10.658,7.114c1.474,0.964,2.863,2.211,4.479,2.778c0.992,0.367,2.551,0,3.515-0.596
				c4.507-2.778,8.873-5.754,13.38-8.73c-1.021-0.709-1.928-1.391-2.863-2.014c-3.997-2.664-8.022-5.301-12.047-7.938
				c-4.11-2.664-8.22-5.329-12.302-7.992c-4.394-2.893-8.788-5.813-13.181-8.703c-1.956-1.275-3.94-2.467-5.868-3.799
				c-0.454-0.313-0.936-0.964-0.936-1.475c-0.057-6.293-0.028-12.586-0.028-18.879c0-0.227,0.057-0.481,0.085-0.936
				c1.134,0.709,2.183,1.305,3.175,1.928c4.649,3.062,9.298,6.123,13.946,9.213c4.337,2.863,8.646,5.726,12.983,8.589
				c4.933,3.231,9.893,6.405,14.825,9.638c3.6,2.354,7.144,4.791,10.715,7.145c2.296,1.502,4.621,2.947,6.888,4.479
				c0.312,0.199,0.624,0.737,0.624,1.135c0.028,6.379,0,12.756,0.028,19.135c0,1.275-1.077,1.502-1.786,1.984
				c-3.912,2.605-7.852,5.158-11.764,7.736c-5.669,3.715-11.367,7.428-17.008,11.197c-0.765,0.51-1.361,0.51-2.126,0
				c-7.115-4.705-14.258-9.41-21.43-14.088c-2.75-1.813-5.556-3.572-8.306-5.414c-0.396-0.256-0.822-0.852-0.822-1.275
				c-0.057-6.491-0.028-12.982-0.028-19.503C34.526,401.216,34.555,401.131,34.668,400.791z"/>
			<path fill="#F29100" d="M97.739,380.182c-10.573-6.916-20.977-13.748-31.663-20.75c0.68-0.084,1.077-0.142,1.474-0.142
				c9.638,0,19.275,0.028,28.914-0.028c1.077,0,1.389,0.284,1.36,1.361c-0.057,6.094-0.028,12.188-0.028,18.283
				C97.824,379.247,97.768,379.588,97.739,380.182z"/>
		</g>
	</g>
</g>
</svg>
